<svg width="60" height="61" viewBox="0 0 60 61" fill="none" xmlns="http://www.w3.org/2000/svg">
<g clip-path="url(#clip0_109_39)">
<path d="M30.7701 29.5672C30.7701 29.5672 30.8203 29.517 30.9208 29.4166C31.0212 29.3161 31.0714 29.1097 31.0714 28.7972C31.0714 28.4847 30.971 28.228 30.7701 28.0271C30.5692 27.8262 30.3125 27.7257 30 27.7257C28.5268 27.7257 27.2656 28.2503 26.2165 29.2994C25.1674 30.3485 24.6429 31.6097 24.6429 33.0829C24.6429 33.3954 24.7433 33.6521 24.9442 33.853C25.1451 34.0539 25.4018 34.1543 25.7143 34.1543C26.0268 34.1543 26.2835 34.0539 26.4844 33.853C26.6853 33.6521 26.7857 33.3954 26.7857 33.0829C26.7857 32.19 27.0982 31.4311 27.7232 30.8061C28.3482 30.1811 29.1071 29.8686 30 29.8686C30.3125 29.8686 30.5692 29.7681 30.7701 29.5672ZM36.0603 27.0896C36.0603 27.0896 36.4788 27.5081 37.3158 28.3451C38.1529 29.1822 38.5714 30.7838 38.5714 33.1498C38.5714 35.5159 37.7344 37.536 36.0603 39.2101C34.3862 40.8842 32.3661 41.7213 30 41.7213C27.6339 41.7213 25.6138 40.8842 23.9397 39.2101C22.2656 37.536 21.4286 35.5159 21.4286 33.1498C21.4286 30.7838 22.2656 28.7637 23.9397 27.0896C25.6138 25.4155 27.6339 24.5784 30 24.5784C32.3661 24.5784 34.3862 25.4155 36.0603 27.0896ZM4.28571 52.3686H55.7143V48.0829H4.28571V52.3686ZM39.0904 42.2402C39.0904 42.2402 39.7182 41.6124 40.9738 40.3569C42.2294 39.1013 42.8571 36.6989 42.8571 33.1498C42.8571 29.6007 41.6016 26.5706 39.0904 24.0594C36.5792 21.5483 33.5491 20.2927 30 20.2927C26.4509 20.2927 23.4208 21.5483 20.9096 24.0594C18.3984 26.5706 17.1429 29.6007 17.1429 33.1498C17.1429 36.6989 18.3984 39.7291 20.9096 42.2402C23.4208 44.7514 26.4509 46.007 30 46.007C33.5491 46.007 36.5792 44.7514 39.0904 42.2402ZM8.57143 11.6543H21.4286V7.36858H8.57143V11.6543ZM4.28571 18.0829H55.7143V14.132V9.51144H27.9911L25.8482 13.7972H4.28571V18.0829ZM60 9.51144V52.3686C60 53.5516 59.5815 54.5617 58.7444 55.3987C57.9074 56.2358 56.8973 56.6543 55.7143 56.6543H4.28571C3.10268 56.6543 2.09263 56.2358 1.25558 55.3987C0.418527 54.5617 0 53.5516 0 52.3686V9.51144C0 8.32841 0.418527 7.31836 1.25558 6.48131C2.09263 5.64425 3.10268 5.22573 4.28571 5.22573H55.7143C56.8973 5.22573 57.9074 5.64425 58.7444 6.48131C59.5815 7.31836 60 8.32841 60 9.51144Z" fill="white"/>
</g>
<defs>
<clipPath id="clip0_109_39">
<rect width="60" height="60" fill="white" transform="matrix(1 0 0 -1 0 60.9399)"/>
</clipPath>
</defs>
</svg>
