<svg width="60" height="61" viewBox="0 0 60 61" fill="none" xmlns="http://www.w3.org/2000/svg">
<g clip-path="url(#clip0_109_33)">
<path d="M55.7143 20.8954C55.7143 19.0873 55.4743 17.4914 54.9944 16.1074C54.5145 14.7235 53.9007 13.6242 53.1529 12.8094C52.4051 11.9947 51.4955 11.3306 50.4241 10.8172C49.3527 10.3039 48.3036 9.95787 47.2768 9.7793C46.25 9.60073 45.1562 9.51144 43.9955 9.51144C42.8348 9.51144 41.5848 9.79604 40.2455 10.3652C38.9062 10.9344 37.673 11.6487 36.5458 12.5081C35.4185 13.3675 34.4531 14.171 33.6496 14.9188C32.846 15.6666 32.1763 16.353 31.6406 16.978C31.2388 17.469 30.692 17.7146 30 17.7146C29.308 17.7146 28.7612 17.469 28.3594 16.978C27.8237 16.353 27.154 15.6666 26.3504 14.9188C25.5469 14.171 24.5815 13.3675 23.4542 12.5081C22.327 11.6487 21.0937 10.9344 19.7545 10.3652C18.4152 9.79604 17.1652 9.51144 16.0045 9.51144C14.8437 9.51144 13.75 9.60073 12.7232 9.7793C11.6964 9.95787 10.6473 10.3039 9.57589 10.8172C8.50446 11.3306 7.59487 11.9947 6.8471 12.8094C6.09933 13.6242 5.48549 14.7235 5.00558 16.1074C4.52567 17.4914 4.28571 19.0873 4.28571 20.8954C4.28571 24.6454 6.37277 28.6074 10.5469 32.7815L30 51.5315L49.4196 32.815C53.6161 28.6186 55.7143 24.6454 55.7143 20.8954ZM60 20.8954C60 25.8284 57.4442 30.8507 52.3326 35.9623L31.4732 56.0516C31.0714 56.4534 30.5804 56.6543 30 56.6543C29.4196 56.6543 28.9286 56.4534 28.5268 56.0516L7.63393 35.8954C7.41071 35.7168 7.10379 35.4266 6.71317 35.0248C6.32254 34.623 5.70312 33.892 4.85491 32.8318C4.0067 31.7715 3.24777 30.6833 2.57812 29.5672C1.90848 28.4512 1.31138 27.1007 0.78683 25.5159C0.262277 23.9311 0 22.3909 0 20.8954C0 15.9847 1.41741 12.1454 4.25223 9.37751C7.08705 6.60966 11.0045 5.22573 16.0045 5.22573C17.3884 5.22573 18.8002 5.46568 20.24 5.94559C21.6797 6.4255 23.019 7.07283 24.2578 7.88756C25.4967 8.70229 26.5625 9.4668 27.4554 10.1811C28.3482 10.8954 29.1964 11.6543 30 12.4579C30.8036 11.6543 31.6518 10.8954 32.5446 10.1811C33.4375 9.4668 34.5033 8.70229 35.7422 7.88756C36.981 7.07283 38.3203 6.4255 39.76 5.94559C41.1998 5.46568 42.6116 5.22573 43.9955 5.22573C48.9955 5.22573 52.9129 6.60966 55.7478 9.37751C58.5826 12.1454 60 15.9847 60 20.8954Z" fill="white"/>
</g>
<defs>
<clipPath id="clip0_109_33">
<rect width="60" height="60" fill="white" transform="matrix(1 0 0 -1 0 60.9399)"/>
</clipPath>
</defs>
</svg>
