<svg width="60" height="61" viewBox="0 0 60 61" fill="none" xmlns="http://www.w3.org/2000/svg">
<g clip-path="url(#clip0_109_27)">
<path d="M59.0625 1.30825C59.7991 1.84396 60.1004 2.55825 59.9665 3.4511L51.3951 54.8797C51.2835 55.527 50.9263 56.0292 50.3237 56.3864C50.0112 56.5649 49.6652 56.6542 49.2857 56.6542C49.0402 56.6542 48.7723 56.5984 48.4821 56.4868L30.837 49.2882L20.8594 60.2368C20.4576 60.7056 19.933 60.9399 19.2857 60.9399C18.9732 60.9399 18.7165 60.8953 18.5156 60.806C18.0915 60.6498 17.7567 60.3875 17.5112 60.0192C17.2656 59.6509 17.1429 59.2435 17.1429 58.7971V43.6632L1.33928 37.2011C0.513388 36.8886 0.0669597 36.2748 -4.58918e-06 35.3596C-0.0669689 34.489 0.290174 33.8306 1.07142 33.3841L56.7857 1.24128C57.567 0.772533 58.3259 0.794854 59.0625 1.30825ZM47.6116 51.498L55.0112 7.2011L6.99776 34.8908L18.2478 39.4779L47.1429 18.0828L31.1384 44.7681L47.6116 51.498Z" fill="white"/>
</g>
<defs>
<clipPath id="clip0_109_27">
<rect width="60" height="60" fill="white" transform="matrix(1 0 0 -1 0 60.9399)"/>
</clipPath>
</defs>
</svg>
